<svg width="144" height="41" viewBox="0 0 144 41" fill="none" xmlns="http://www.w3.org/2000/svg">
<path fill-rule="evenodd" clip-rule="evenodd" d="M39.6373 12.122L43.8771 4.61255C45.0358 2.56452 43.5627 0.0314212 41.2092 0.0314212H3.46427C-0.003016 0.0314212 -1.31448 4.56764 1.62284 6.41806L10.0485 12.122H39.6373Z" fill="#29A589"/>
<path fill-rule="evenodd" clip-rule="evenodd" d="M22.3277 40.1837H21.4654C18.7975 40.1837 16.6327 38.0189 16.6327 35.3511V16.7301H27.1604V35.3511C27.1604 38.0189 24.9955 40.1837 22.3277 40.1837Z" fill="#D0DC27"/>
<path fill-rule="evenodd" clip-rule="evenodd" d="M27.1606 23.8533H29.5949C31.7147 23.8533 33.673 22.7125 34.706 20.8621L37.0235 16.7211H16.6689L27.1606 23.9072V23.8533Z" fill="#59C0A3"/>
<path fill-rule="evenodd" clip-rule="evenodd" d="M70.5745 7.25232C68.8777 7.25232 67.6422 7.57354 66.868 8.216C66.0938 8.85845 65.7066 9.83861 65.7066 11.1565V12.1819H71.5381V19.4219H65.6449V40.2152H57.5524V19.4219H53.9324V12.1819H57.6142V11.1565C57.6059 9.31146 57.8036 7.68886 58.2072 6.28864C58.6026 4.89666 59.2615 3.7353 60.184 2.80456C61.1065 1.88206 62.3255 1.18607 63.841 0.716582C65.3483 0.23886 67.2139 0 69.4378 0C70.7639 0 72.0323 0.152378 73.2431 0.457132V7.53648C72.4112 7.34704 71.5217 7.25232 70.5745 7.25232Z" fill="#193233"/>
<path fill-rule="evenodd" clip-rule="evenodd" d="M89.2669 0.630102V40.2152H81.1621V0.630102H89.2669Z" fill="#193233"/>
<path fill-rule="evenodd" clip-rule="evenodd" d="M105.736 0.630102V8.26542H97.582V0.630102H105.736ZM105.736 12.1819V40.2152H97.582V12.1819H105.736Z" fill="#193233"/>
<path fill-rule="evenodd" clip-rule="evenodd" d="M143.11 40.2152H134.227L125.504 28.1444L121.773 31.715V40.2152H113.607V0.630102H121.773V22.9924L132.522 12.1819H142.27L130.829 23.0542L143.11 40.2152Z" fill="#193233"/>
</svg>
